# This file uses centimeters as units for non-parametric coordinates.

mtllib cartoontree_new.mtl
g default
v 0.000000 4.352114 -0.975046
v 0.689461 4.352114 -0.689461
v 0.975046 4.352114 0.000000
v 0.689461 4.352114 0.689461
v 0.000000 4.352114 0.975046
v 0.000000 6.302205 0.000000
v -0.689461 4.352114 0.689461
v -0.975046 4.352114 0.000000
v -0.689461 4.352114 -0.689461
v 0.000000 2.562055 -1.534766
v 1.085243 2.562055 -1.085243
v 1.534766 2.562055 0.000000
v 1.085243 2.562055 1.085243
v 0.000000 2.562055 1.534766
v 0.000000 5.631586 0.000000
v -1.085243 2.562055 1.085243
v -1.534766 2.562055 0.000000
v -1.085243 2.562055 -1.085243
v 0.000000 0.659985 -2.098403
v 1.483795 0.659985 -1.483795
v 2.098403 0.659985 0.000000
v 1.483795 0.659985 1.483795
v 0.000000 0.659985 2.098403
v 0.000000 4.856791 0.000000
v -1.483795 0.659985 1.483795
v -2.098403 0.659985 0.000000
v -1.483795 0.659985 -1.483795
v 0.000000 -1.005764 -0.634023
v 0.000000 1.005764 -0.634023
v 0.448322 -1.005764 -0.448322
v 0.448322 1.005764 -0.448322
v 0.634023 -1.005764 0.000000
v 0.634023 1.005764 0.000000
v 0.448322 -1.005764 0.448322
v 0.448322 1.005764 0.448322
v 0.000000 -1.005764 0.634023
v 0.000000 1.005764 0.634023
v -0.448322 -1.005764 0.448322
v -0.448322 1.005764 0.448322
v -0.634023 -1.005764 0.000000
v -0.634023 1.005764 0.000000
v -0.448322 -1.005764 -0.448322
v -0.448322 1.005764 -0.448322
vn -0.838717 0.419358 -0.347408
vn -0.838717 0.419358 -0.347408
vn -0.838717 0.419358 -0.347408
vn 0.347409 0.419358 -0.838717
vn 0.347409 0.419359 -0.838717
vn 0.347409 0.419358 -0.838717
vn -0.838717 0.419358 0.347408
vn -0.838717 0.419358 0.347408
vn -0.838717 0.419358 0.347408
vn -0.347409 0.419358 0.838717
vn -0.347409 0.419359 0.838717
vn -0.347409 0.419358 0.838717
vn 0.347409 0.419358 0.838717
vn 0.347409 0.419359 0.838717
vn 0.347409 0.419358 0.838717
vn 0.838717 0.419358 0.347408
vn 0.838717 0.419358 0.347408
vn 0.838717 0.419358 0.347408
vn -0.347409 0.419358 -0.838717
vn -0.347409 0.419359 -0.838717
vn -0.347409 0.419358 -0.838717
vn 0.838717 0.419358 -0.347408
vn 0.838717 0.419358 -0.347408
vn 0.838717 0.419358 -0.347408
vn 0.000000 -1.000000 0.000000
vn 0.000000 -1.000000 0.000000
vn 0.000000 -1.000000 0.000000
vn 0.000000 -1.000000 0.000000
vn 0.000000 -1.000000 0.000000
vn 0.000000 -1.000000 0.000000
vn 0.000000 -1.000000 0.000000
vn 0.000000 -1.000000 0.000000
vn -0.838717 0.419359 -0.347408
vn -0.838717 0.419359 -0.347408
vn -0.838717 0.419359 -0.347408
vn 0.347408 0.419358 -0.838717
vn 0.347408 0.419358 -0.838717
vn 0.347408 0.419358 -0.838717
vn -0.838717 0.419359 0.347408
vn -0.838717 0.419359 0.347408
vn -0.838717 0.419359 0.347408
vn -0.347408 0.419358 0.838717
vn -0.347408 0.419358 0.838717
vn -0.347408 0.419358 0.838717
vn 0.347408 0.419358 0.838717
vn 0.347408 0.419358 0.838717
vn 0.347408 0.419358 0.838717
vn 0.838717 0.419359 0.347408
vn 0.838717 0.419359 0.347408
vn 0.838717 0.419359 0.347408
vn -0.347408 0.419358 -0.838717
vn -0.347408 0.419358 -0.838717
vn -0.347408 0.419358 -0.838717
vn 0.838717 0.419359 -0.347408
vn 0.838717 0.419359 -0.347408
vn 0.838717 0.419359 -0.347408
vn 0.000000 -1.000000 0.000000
vn 0.000000 -1.000000 0.000000
vn 0.000000 -1.000000 0.000000
vn 0.000000 -1.000000 0.000000
vn 0.000000 -1.000000 0.000000
vn 0.000000 -1.000000 0.000000
vn 0.000000 -1.000000 0.000000
vn 0.000000 -1.000000 0.000000
vn -0.838717 0.419358 -0.347408
vn -0.838717 0.419358 -0.347408
vn -0.838717 0.419358 -0.347408
vn 0.347408 0.419358 -0.838717
vn 0.347408 0.419358 -0.838717
vn 0.347408 0.419358 -0.838717
vn -0.838717 0.419358 0.347408
vn -0.838717 0.419358 0.347408
vn -0.838717 0.419358 0.347408
vn -0.347408 0.419358 0.838717
vn -0.347408 0.419358 0.838717
vn -0.347408 0.419358 0.838717
vn 0.347408 0.419358 0.838717
vn 0.347408 0.419358 0.838717
vn 0.347408 0.419358 0.838717
vn 0.838717 0.419358 0.347408
vn 0.838717 0.419358 0.347408
vn 0.838717 0.419358 0.347408
vn -0.347408 0.419358 -0.838717
vn -0.347408 0.419358 -0.838717
vn -0.347408 0.419358 -0.838717
vn 0.838717 0.419358 -0.347408
vn 0.838717 0.419358 -0.347408
vn 0.838717 0.419358 -0.347408
vn 0.000000 -1.000000 0.000000
vn 0.000000 -1.000000 0.000000
vn 0.000000 -1.000000 0.000000
vn 0.000000 -1.000000 0.000000
vn 0.000000 -1.000000 0.000000
vn 0.000000 -1.000000 0.000000
vn 0.000000 -1.000000 0.000000
vn 0.000000 -1.000000 0.000000
vn 0.382683 0.000000 -0.923879
vn 0.382683 0.000000 -0.923879
vn 0.382683 0.000000 -0.923879
vn 0.382683 0.000000 -0.923879
vn 0.923879 0.000000 -0.382683
vn 0.923879 0.000000 -0.382683
vn 0.923879 0.000000 -0.382683
vn 0.923879 0.000000 -0.382683
vn 0.923879 0.000000 0.382683
vn 0.923879 0.000000 0.382683
vn 0.923879 0.000000 0.382683
vn 0.923879 0.000000 0.382683
vn 0.382683 0.000000 0.923879
vn 0.382683 0.000000 0.923879
vn 0.382683 0.000000 0.923879
vn 0.382683 0.000000 0.923879
vn -0.382683 0.000000 0.923879
vn -0.382683 0.000000 0.923879
vn -0.382683 0.000000 0.923879
vn -0.382683 0.000000 0.923879
vn -0.923879 0.000000 0.382683
vn -0.923879 0.000000 0.382683
vn -0.923879 0.000000 0.382683
vn -0.923879 0.000000 0.382683
vn 0.000000 1.000000 0.000000
vn 0.000000 1.000000 0.000000
vn 0.000000 1.000000 0.000000
vn 0.000000 1.000000 0.000000
vn 0.000000 1.000000 0.000000
vn 0.000000 1.000000 0.000000
vn 0.000000 1.000000 0.000000
vn 0.000000 1.000000 0.000000
vn -0.382683 0.000000 -0.923879
vn -0.382683 0.000000 -0.923879
vn -0.382683 0.000000 -0.923879
vn -0.382683 0.000000 -0.923879
vn -0.923879 0.000000 -0.382683
vn -0.923879 0.000000 -0.382683
vn -0.923879 0.000000 -0.382683
vn -0.923879 0.000000 -0.382683
vn 0.000000 -1.000000 0.000000
vn 0.000000 -1.000000 0.000000
vn 0.000000 -1.000000 0.000000
vn 0.000000 -1.000000 0.000000
vn 0.000000 -1.000000 0.000000
vn 0.000000 -1.000000 0.000000
vn 0.000000 -1.000000 0.000000
vn 0.000000 -1.000000 0.000000
s off
g CartoonTree:Mesh
usemtl CartoonTree:Material_001
f 8//1 6//2 9//3
f 1//4 6//5 2//6
f 7//7 6//8 8//9
f 5//10 6//11 7//12
f 4//13 6//14 5//15
f 3//16 6//17 4//18
f 9//19 6//20 1//21
f 2//22 6//23 3//24
f 1//25 2//26 3//27 4//28 5//29 7//30 8//31 9//32
f 17//33 15//34 18//35
f 10//36 15//37 11//38
f 16//39 15//40 17//41
f 14//42 15//43 16//44
f 13//45 15//46 14//47
f 12//48 15//49 13//50
f 18//51 15//52 10//53
f 11//54 15//55 12//56
f 10//57 11//58 12//59 13//60 14//61 16//62 17//63 18//64
f 26//65 24//66 27//67
f 19//68 24//69 20//70
f 25//71 24//72 26//73
f 23//74 24//75 25//76
f 22//77 24//78 23//79
f 21//80 24//81 22//82
f 27//83 24//84 19//85
f 20//86 24//87 21//88
f 19//89 20//90 21//91 22//92 23//93 25//94 26//95 27//96
usemtl CartoonTree:Material_003
f 28//97 29//98 31//99 30//100
f 30//101 31//102 33//103 32//104
f 32//105 33//106 35//107 34//108
f 34//109 35//110 37//111 36//112
f 36//113 37//114 39//115 38//116
f 38//117 39//118 41//119 40//120
f 31//121 29//122 43//123 41//124 39//125 37//126 35//127 33//128
f 42//129 43//130 29//131 28//132
f 40//133 41//134 43//135 42//136
f 28//137 30//138 32//139 34//140 36//141 38//142 40//143 42//144
